<svg xmlns="http://www.w3.org/2000/svg" xmlns:xlink="http://www.w3.org/1999/xlink" width="512" zoomAndPan="magnify" viewBox="0 0 384 383.999986" height="512" preserveAspectRatio="xMidYMid meet" version="1.0"><defs><clipPath id="0f5225ec40"><path d="M 7.53125 7.53125 L 377.222656 7.53125 L 377.222656 377.222656 L 7.53125 377.222656 Z M 7.53125 7.53125 " clip-rule="nonzero"/></clipPath><clipPath id="8644ab0c1c"><path d="M 192.375 7.53125 C 90.289062 7.53125 7.53125 90.289062 7.53125 192.375 C 7.53125 294.464844 90.289062 377.222656 192.375 377.222656 C 294.464844 377.222656 377.222656 294.464844 377.222656 192.375 C 377.222656 90.289062 294.464844 7.53125 192.375 7.53125 Z M 192.375 7.53125 " clip-rule="nonzero"/></clipPath><clipPath id="fc4cb2ad74"><path d="M 0.53125 0.53125 L 370.222656 0.53125 L 370.222656 370.222656 L 0.53125 370.222656 Z M 0.53125 0.53125 " clip-rule="nonzero"/></clipPath><clipPath id="5412c1c508"><path d="M 185.375 0.53125 C 83.289062 0.53125 0.53125 83.289062 0.53125 185.375 C 0.53125 287.464844 83.289062 370.222656 185.375 370.222656 C 287.464844 370.222656 370.222656 287.464844 370.222656 185.375 C 370.222656 83.289062 287.464844 0.53125 185.375 0.53125 Z M 185.375 0.53125 " clip-rule="nonzero"/></clipPath><clipPath id="f97b5fc526"><rect x="0" width="371" y="0" height="371"/></clipPath></defs><g clip-path="url(#0f5225ec40)"><g clip-path="url(#8644ab0c1c)"><g transform="matrix(1, 0, 0, 1, 7, 7)"><g clip-path="url(#f97b5fc526)"><g clip-path="url(#fc4cb2ad74)"><g clip-path="url(#5412c1c508)"><path fill="#f05a28" d="M 0.53125 0.53125 L 370.222656 0.53125 L 370.222656 370.222656 L 0.53125 370.222656 Z M 0.53125 0.53125 " fill-opacity="1" fill-rule="nonzero"/></g></g></g></g></g></g></svg>